<?xml version="1.0" encoding="utf-8"?>
<!-- Generator: Adobe Illustrator 16.0.0, SVG Export Plug-In . SVG Version: 6.00 Build 0)  -->
<!DOCTYPE svg PUBLIC "-//W3C//DTD SVG 1.1//EN" "http://www.w3.org/Graphics/SVG/1.1/DTD/svg11.dtd">
<svg version="1.1" id="Ebene_1" xmlns="http://www.w3.org/2000/svg" xmlns:xlink="http://www.w3.org/1999/xlink" x="0px" y="0px"
	 width="580px" height="550px" viewBox="0 0 580 550" enable-background="new 0 0 580 550" xml:space="preserve">
<g id="Herz" transform="translate(34.268146,-99.780779)" sodipodi:docname="logoHeart.svg" inkscape:version="0.48.2 r9819">
	<path id="path87" inkscape:connector-curvature="0" fill="#FFFFFF" d="M542.08,253.781l-25-75 M517.08,178.781l-25-30l-60-35l-50-5
		l-50,15l-45,30l-30,45l-30.001-45l-64.999-40l-85,5l-65,45l-30,45l-10,65l10,75l30,55l65,80.001l30,30l90,84.999l63.91,44.809
		l66.09-54.809l36.889-31.166l53.111-53.833l70-75.001l25-40l25-55l5-80L517.08,178.781"/>
	<g id="layer2_1_" inkscape:label="Herz" inkscape:groupmode="layer">
		<path id="path3758_1_" inkscape:connector-curvature="0" fill="#C03A2B" d="M257.08,198.781l90-40v65L257.08,198.781z"/>
		<path id="path3760_1_" inkscape:connector-curvature="0" opacity="0.95" fill="#C03A2B" enable-background="new    " d="
			M347.08,158.781l-15-35l-45,30L347.08,158.781z"/>
		<path id="path3762_1_" inkscape:connector-curvature="0" opacity="0.85" fill="#C03A2B" enable-background="new    " d="
			M287.08,153.781l-30,45l90-40L287.08,153.781z"/>
		<path id="path3764_1_" inkscape:connector-curvature="0" opacity="0.95" fill="#C03A2B" enable-background="new    " d="
			M332.08,123.781l50-15l-5,35.25L332.08,123.781z"/>
		
			<path id="path3766_1_" sodipodi:nodetypes="cccc" inkscape:connector-curvature="0" opacity="0.9" fill="#C03A2B" enable-background="new    " d="
			M347.08,158.781l85,10l-100-45L347.08,158.781z"/>
		<path id="path3768_1_" inkscape:connector-curvature="0" fill="#C03A2B" d="M382.08,108.781l50,5l-55,30.25L382.08,108.781z"/>
		
			<path id="path3770_1_" sodipodi:nodetypes="cccc" inkscape:connector-curvature="0" opacity="0.85" fill="#C03A2B" enable-background="new    " d="
			M432.08,113.781l60,35l-60,60V113.781L432.08,113.781z"/>
		<path id="path3772_1_" inkscape:connector-curvature="0" opacity="0.95" fill="#C03A2B" enable-background="new    " d="
			M432.08,113.781l-55,30.25l55,24.75V113.781z"/>
		<path id="path3774_1_" inkscape:connector-curvature="0" fill="#C03A2B" d="M492.08,148.781l25,30l-10,55L492.08,148.781z"/>
		<path id="path3776_1_" inkscape:connector-curvature="0" opacity="0.9" fill="#C03A2B" enable-background="new    " d="
			M347.08,208.781l85-40l-85-10V208.781z"/>
		
			<path id="path3778_1_" sodipodi:nodetypes="cccc" inkscape:connector-curvature="0" opacity="0.95" fill="#C03A2B" enable-background="new    " d="
			M347.08,208.781l60.063,10.523l-25.063,39.477L347.08,208.781z"/>
		
			<path id="path3780_1_" sodipodi:nodetypes="ccccc" inkscape:connector-curvature="0" opacity="0.85" fill="#C03A2B" enable-background="new    " d="
			M347.08,223.781v50l35-15l-35-50V223.781z"/>
		
			<path id="path3782_1_" sodipodi:nodetypes="cccc" inkscape:connector-curvature="0" opacity="0.7673" fill="#C03A2B" enable-background="new    " d="
			M347.08,208.781l85,15v-55L347.08,208.781z"/>
		<path id="path3784_1_" inkscape:connector-curvature="0" opacity="0.95" fill="#C03A2B" enable-background="new    " d="
			M432.08,208.781v65l60-125L432.08,208.781L432.08,208.781z"/>
		
			<path id="path3790_1_" sodipodi:nodetypes="cccc" inkscape:connector-curvature="0" opacity="0.95" fill="#C03A2B" enable-background="new    " d="
			M517.08,178.781l25,75l-40,5.545L517.08,178.781z"/>
		<path id="path3800_1_" inkscape:connector-curvature="0" fill="#C03A2B" d="M506.796,233.997l-4.717,25.33l-35,4.852
			L506.796,233.997L506.796,233.997z"/>
		<path id="path3802_1_" inkscape:connector-curvature="0" opacity="0.8648" fill="#C03A2B" enable-background="new    " d="
			M507.08,233.781l-60.6,10l20.6,20.396L507.08,233.781z"/>
		
			<path id="path3804_1_" sodipodi:nodetypes="cccc" inkscape:connector-curvature="0" opacity="0.85" fill="#C03A2B" enable-background="new    " d="
			M446.48,243.781l-29.4,60h90L446.48,243.781z"/>
		<path id="path3806_1_" sodipodi:nodetypes="cccc" inkscape:connector-curvature="0" fill="#C03A2B" d="M542.08,253.781l-5,80
			l-70-69.604L542.08,253.781z"/>
		<path id="path3820_1_" sodipodi:nodetypes="cccc" inkscape:connector-curvature="0" fill="#C03A2B" d="M382.08,258.781l-30,50
			l65-5L382.08,258.781z"/>
		<path id="path3822_1_" inkscape:connector-curvature="0" opacity="0.8" fill="#C03A2B" enable-background="new    " d="
			M382.08,258.781l-35,15l5,35L382.08,258.781z"/>
		<path id="path3824_1_" inkscape:connector-curvature="0" opacity="0.95" fill="#C03A2B" enable-background="new    " d="
			M257.08,198.781l20,75l70-50L257.08,198.781z"/>
		<path id="path3826_1_" inkscape:connector-curvature="0" opacity="0.8" fill="#C03A2B" enable-background="new    " d="
			M347.08,223.781v50h-70L347.08,223.781z"/>
		<path id="path3828_1_" inkscape:connector-curvature="0" opacity="0.95" fill="#C03A2B" enable-background="new    " d="
			M347.08,273.781h-70l75,35L347.08,273.781z"/>
		<path id="path3830_1_" inkscape:connector-curvature="0" opacity="0.95" fill="#C03A2B" enable-background="new    " d="
			M537.08,333.781l-25,55l-5-85L537.08,333.781z"/>
		<path id="path3832_1_" inkscape:connector-curvature="0" opacity="0.9" fill="#C03A2B" enable-background="new    " d="
			M507.08,303.781h-55l60,85L507.08,303.781z"/>
		<path id="path3834_1_" inkscape:connector-curvature="0" opacity="0.85" fill="#C03A2B" enable-background="new    " d="
			M452.08,303.781h-35l10,45L452.08,303.781z"/>
		<path id="path3836_1_" inkscape:connector-curvature="0" opacity="0.9" fill="#C03A2B" enable-background="new    " d="
			M417.08,303.781l-65,5l75,40L417.08,303.781z"/>
		<path id="path3838_1_" inkscape:connector-curvature="0" opacity="0.9" fill="#C03A2B" enable-background="new    " d="
			M452.08,303.781l5,35l-30,10L452.08,303.781z"/>
		<path id="path3840_1_" inkscape:connector-curvature="0" opacity="0.95" fill="#C03A2B" enable-background="new    " d="
			M452.08,303.781l35.23,49.91l-30.23-14.91L452.08,303.781z"/>
		<path id="path3842_1_" inkscape:connector-curvature="0" opacity="0.95" fill="#C03A2B" enable-background="new    " d="
			M512.08,388.781l-25,40l0.23-75.09L512.08,388.781z"/>
		<path id="path3844_1_" inkscape:connector-curvature="0" opacity="0.95" fill="#C03A2B" enable-background="new    " d="
			M457.08,338.781l-20,55l50.23-40.09L457.08,338.781z"/>
		<path id="path3846_1_" inkscape:connector-curvature="0" opacity="0.9" fill="#C03A2B" enable-background="new    " d="
			M487.31,353.691l-0.123,50.204l-50.107-10.114L487.31,353.691z"/>
		<path id="path3848_1_" inkscape:connector-curvature="0" opacity="0.8" fill="#C03A2B" enable-background="new    " d="
			M487.08,428.781l-50-35l50.076,10.067L487.08,428.781z"/>
		<path id="path3850_1_" sodipodi:nodetypes="cccc" inkscape:connector-curvature="0" fill="#C03A2B" d="M457.08,338.781l-75,24.318
			l55,30.682L457.08,338.781z"/>
		<path id="path3852_1_" inkscape:connector-curvature="0" opacity="0.8" fill="#C03A2B" enable-background="new    " d="
			M487.08,428.781h-100l50-35L487.08,428.781z"/>
		<path id="path3854_1_" inkscape:connector-curvature="0" opacity="0.95" fill="#C03A2B" enable-background="new    " d="
			M437.08,393.781l-55-30.682l5,65.682L437.08,393.781z"/>
		
			<path id="path3856_1_" sodipodi:nodetypes="cccc" inkscape:connector-curvature="0" opacity="0.95" fill="#C03A2B" enable-background="new    " d="
			M427.08,348.781l-75-40l-35,75L427.08,348.781z"/>
		<path id="path3858_1_" inkscape:connector-curvature="0" opacity="0.9" fill="#C03A2B" enable-background="new    " d="
			M487.08,428.781l-70,75.001l-30-75.001H487.08z"/>
		<path id="path3860_1_" inkscape:connector-curvature="0" fill="#C03A2B" d="M417.08,503.782l-53.111,53.833l-41.889-83.833
			L417.08,503.782z"/>
		<path id="path3862_1_" inkscape:connector-curvature="0" opacity="0.85" fill="#C03A2B" enable-background="new    " d="
			M387.08,428.781l-65,45.001l95,30L387.08,428.781z"/>
		<path id="path3864_4_" inkscape:connector-curvature="0" opacity="0.95" fill="#C03A2B" enable-background="new    " d="
			M317.08,383.781l5,90.001l65-45.001"/>
		<path id="path3866_1_" sodipodi:nodetypes="cccc" inkscape:connector-curvature="0" fill="#C03A2B" d="M363.968,557.615
			l-36.889,31.166h-60L363.968,557.615z"/>
		<path id="path3868_1_" inkscape:connector-curvature="0" opacity="0.9" fill="#C03A2B" enable-background="new    " d="
			M322.08,473.782l-55,114.999l96.889-31.166L322.08,473.782z"/>
		<path id="path3870_1_" inkscape:connector-curvature="0" opacity="0.9" fill="#C03A2B" enable-background="new    " d="
			M317.08,383.781l-75.001,10l80.001,80.001L317.08,383.781z"/>
		<path id="path3872_1_" inkscape:connector-curvature="0" opacity="0.95" fill="#C03A2B" enable-background="new    " d="
			M242.079,393.781l55.583,131.057l24.418-51.056L242.079,393.781L242.079,393.781z"/>
		<path id="path3874_1_" inkscape:connector-curvature="0" opacity="0.95" fill="#C03A2B" enable-background="new    " d="
			M297.662,524.837l-30.582,63.943l-60-55L297.662,524.837L297.662,524.837z"/>
		<path id="path3876_1_" inkscape:connector-curvature="0" fill="#C03A2B" d="M242.079,393.781l-34.999,140l90.582-8.943
			L242.079,393.781L242.079,393.781z"/>
		<path id="path3878_1_" inkscape:connector-curvature="0" opacity="0.95" fill="#C03A2B" enable-background="new    " d="
			M267.08,588.781l-6.09,54.809l66.09-54.809H267.08z"/>
		<path id="path3880_1_" inkscape:connector-curvature="0" opacity="0.95" fill="#C03A2B" enable-background="new    " d="
			M267.08,588.781l-70,10l65,35L267.08,588.781z"/>
		<path id="path3882_1_" inkscape:connector-curvature="0" fill="#C03A2B" d="M197.08,598.781l63.91,44.809l1.09-9.809
			L197.08,598.781z"/>
		<path id="path3884_1_" inkscape:connector-curvature="0" fill="#C03A2B" d="M207.08,533.781l-10,65l70-10L207.08,533.781z"/>
		<path id="path3886_1_" inkscape:connector-curvature="0" opacity="0.95" fill="#C03A2B" enable-background="new    " d="
			M207.08,533.781l-100-19.999l90,84.999L207.08,533.781z"/>
		<path id="path3888_1_" inkscape:connector-curvature="0" fill="#C03A2B" d="M107.08,513.782l45-65.001l30,80L107.08,513.782z"/>
		<path id="path3890_1_" inkscape:connector-curvature="0" opacity="0.9" fill="#C03A2B" enable-background="new    " d="
			M207.08,533.781l-25-5l44.999-75L207.08,533.781z"/>
		<path id="path3892_1_" inkscape:connector-curvature="0" opacity="0.9" fill="#C03A2B" enable-background="new    " d="
			M182.08,528.781l-30-80l45-20L182.08,528.781z"/>
		<path id="path3894_1_" inkscape:connector-curvature="0" opacity="0.8" fill="#C03A2B" enable-background="new    " d="
			M242.079,393.781l-44.999,35l29.999,25L242.079,393.781z"/>
		<path id="path3896_1_" inkscape:connector-curvature="0" opacity="0.85" fill="#C03A2B" enable-background="new    " d="
			M197.08,428.781l-15,100l44.999-75L197.08,428.781z"/>
		<path id="path3898_1_" inkscape:connector-curvature="0" opacity="0.9" fill="#C03A2B" enable-background="new    " d="
			M287.08,278.448l-20,50.333l64.527-29.583L287.08,278.448z"/>
		<path id="path3900_1_" inkscape:connector-curvature="0" opacity="0.9" fill="#C03A2B" enable-background="new    " d="
			M352.08,308.725l-20.473-9.528l-44.527,44.528L352.08,308.725L352.08,308.725z"/>
		<path id="path3902_1_" inkscape:connector-curvature="0" opacity="0.8" fill="#C03A2B" enable-background="new    " d="
			M352.08,308.781l-35,75l-30-40L352.08,308.781z"/>
		<path id="path3904_1_" inkscape:connector-curvature="0" opacity="0.85" fill="#C03A2B" enable-background="new    " d="
			M331.607,299.198l-45.076,45l-19.451-15.417L331.607,299.198z"/>
		<path id="path3906_1_" inkscape:connector-curvature="0" fill="#C03A2B" d="M317.08,383.781l-30-40l-60.001,10L317.08,383.781z"/>
		<path id="path3908_1_" inkscape:connector-curvature="0" opacity="0.9" fill="#C03A2B" enable-background="new    " d="
			M227.079,353.781l15,40l75.001-10L227.079,353.781z"/>
		<path id="path3910_1_" inkscape:connector-curvature="0" opacity="0.85" fill="#C03A2B" enable-background="new    " d="
			M197.08,428.781l44.999-35l-44.999-120V428.781z"/>
		<path id="path3912_1_" inkscape:connector-curvature="0" opacity="0.95" fill="#C03A2B" enable-background="new    " d="
			M267.08,328.781l-40.001,25l60.001-10L267.08,328.781z"/>
		<path id="path3914_1_" inkscape:connector-curvature="0" opacity="0.95" fill="#C03A2B" enable-background="new    " d="
			M277.08,273.781l-50.001-20l40.001,75l20-50.333L277.08,273.781z"/>
		<path id="path3916_1_" inkscape:connector-curvature="0" opacity="0.95" fill="#C03A2B" enable-background="new    " d="
			M227.079,253.781l40.001,75l-40.001,25V253.781z"/>
		<path id="path3918_1_" inkscape:connector-curvature="0" fill="#C03A2B" d="M227.079,253.781l-29.999,20l29.999,80V253.781z"/>
		<path id="path3920_1_" inkscape:connector-curvature="0" fill="#C03A2B" d="M257.08,198.781l-30.001,55l50.001,20L257.08,198.781z
			"/>
		<path id="path3922_1_" inkscape:connector-curvature="0" opacity="0.9" fill="#C03A2B" enable-background="new    " d="
			M152.08,448.781l-55-40l100,20L152.08,448.781z"/>
		<path id="path3924_1_" inkscape:connector-curvature="0" opacity="0.8" fill="#C03A2B" enable-background="new    " d="
			M97.08,408.781l-20,75.001l75-35.001L97.08,408.781z"/>
		<path id="path3926_1_" inkscape:connector-curvature="0" opacity="0.9" fill="#C03A2B" enable-background="new    " d="
			M152.08,448.781l-45,65.001l-30-30L152.08,448.781z"/>
		<path id="path3928_1_" inkscape:connector-curvature="0" opacity="0.85" fill="#C03A2B" enable-background="new    " d="
			M77.08,483.782l-65-80.001l85,5L77.08,483.782z"/>
		<path id="path3930_1_" inkscape:connector-curvature="0" opacity="0.9" fill="#C03A2B" enable-background="new    " d="
			M12.08,403.781l10-85l75,90L12.08,403.781z"/>
		<path id="path3932_1_" inkscape:connector-curvature="0" opacity="0.95" fill="#C03A2B" enable-background="new    " d="
			M197.08,428.781v-105l-100,85L197.08,428.781z"/>
		<path id="path3934_1_" inkscape:connector-curvature="0" opacity="0.95" fill="#C03A2B" enable-background="new    " d="
			M197.08,273.781l-90,10l90,40V273.781z"/>
		<path id="path3936_1_" inkscape:connector-curvature="0" fill="#C03A2B" d="M107.08,283.781l-10,125l100-85L107.08,283.781z"/>
		<path id="path3938_1_" inkscape:connector-curvature="0" opacity="0.95" fill="#C03A2B" enable-background="new    " d="
			M107.08,283.781l-85,35l75,90L107.08,283.781z"/>
		
			<path id="path3940_1_" sodipodi:nodetypes="cccc" inkscape:connector-curvature="0" opacity="0.95" fill="#C03A2B" enable-background="new    " d="
			M22.08,318.781l-40,30l30,55L22.08,318.781z"/>
		<path id="path3942_1_" inkscape:connector-curvature="0" fill="#C03A2B" d="M-17.92,348.781l-10-75l50,45L-17.92,348.781z"/>
		
			<path id="path3944_1_" sodipodi:nodetypes="cccc" inkscape:connector-curvature="0" opacity="0.9" fill="#C03A2B" enable-background="new    " d="
			M-27.92,273.781l90-30l-40,75L-27.92,273.781z"/>
		<path id="path3946_1_" inkscape:connector-curvature="0" opacity="0.85" fill="#C03A2B" enable-background="new    " d="
			M82.08,294.076l-20-50.295l-40,75L82.08,294.076z"/>
		<path id="path3948_1_" inkscape:connector-curvature="0" opacity="0.95" fill="#C03A2B" enable-background="new    " d="
			M62.08,243.781l45,40l-25,10.295L62.08,243.781z"/>
		<path id="path3950_1_" inkscape:connector-curvature="0" fill="#C03A2B" d="M62.08,243.781l80-30l-35,70L62.08,243.781z"/>
		<path id="path3952_1_" inkscape:connector-curvature="0" fill="#C03A2B" d="M142.08,213.781l55,60l-90,10L142.08,213.781z"/>
		<path id="path3954_1_" inkscape:connector-curvature="0" opacity="0.85" fill="#C03A2B" enable-background="new    " d="
			M227.079,253.781l-19.999-60l-10,80L227.079,253.781z"/>
		<path id="path3956_1_" inkscape:connector-curvature="0" opacity="0.9" fill="#C03A2B" enable-background="new    " d="
			M142.08,213.781l65-20l-10,80L142.08,213.781z"/>
		<path id="path3958_1_" inkscape:connector-curvature="0" opacity="0.9" fill="#C03A2B" enable-background="new    " d="
			M207.08,193.781l19.999-40v100L207.08,193.781z"/>
		<path id="path3960_1_" inkscape:connector-curvature="0" opacity="0.95" fill="#C03A2B" enable-background="new    " d="
			M227.079,153.781l30.001,45l-30.001,55V153.781z"/>
		<path id="path3962_1_" inkscape:connector-curvature="0" opacity="0.85" fill="#C03A2B" enable-background="new    " d="
			M227.079,153.781l-64.999-40l-39.8,59.729L227.079,153.781z"/>
		<path id="path3964_1_" inkscape:connector-curvature="0" opacity="0.95" fill="#C03A2B" enable-background="new    " d="
			M227.079,153.781l-50.182,9.447l30.183,30.553L227.079,153.781z"/>
		<path id="path3968_1_" inkscape:connector-curvature="0" fill="#C03A2B" d="M176.897,163.228l-34.817,50.553l65-20
			L176.897,163.228z"/>
		<path id="path3970_1_" inkscape:connector-curvature="0" opacity="0.9" fill="#C03A2B" enable-background="new    " d="
			M176.897,163.228L67.08,183.781l75,30L176.897,163.228L176.897,163.228z"/>
		<path id="path3972_1_" inkscape:connector-curvature="0" opacity="0.8" fill="#C03A2B" enable-background="new    " d="
			M67.08,183.781l-95,90l90-30L67.08,183.781z"/>
		<path id="path3974_1_" inkscape:connector-curvature="0" opacity="0.95" fill="#C03A2B" enable-background="new    " d="
			M67.08,183.781l75,30l-80,30L67.08,183.781z"/>
		<path id="path3976_1_" inkscape:connector-curvature="0" opacity="0.95" fill="#C03A2B" enable-background="new    " d="
			M162.08,113.781l-85,5l45.2,54.729L162.08,113.781z"/>
		<path id="path3978_1_" inkscape:connector-curvature="0" opacity="0.9" fill="#C03A2B" enable-background="new    " d="
			M77.08,118.781l-65,45l110.2,9.729L77.08,118.781z"/>
		<path id="path3980_1_" inkscape:connector-curvature="0" fill="#C03A2B" d="M122.28,173.51l-110.2-9.729l55,20L122.28,173.51z"/>
		<path id="path3982_1_" inkscape:connector-curvature="0" opacity="0.85" fill="#C03A2B" enable-background="new    " d="
			M12.08,163.781l-30,45l85-25L12.08,163.781z"/>
		<path id="path3984_1_" inkscape:connector-curvature="0" opacity="0.9" fill="#C03A2B" enable-background="new    " d="
			M-17.92,208.781l-10,65l95-90L-17.92,208.781z"/>
		<path id="path3986_1_" inkscape:connector-curvature="0" opacity="0.75" fill="#C03A2B" enable-background="new    " d="
			M492.08,148.781l-45.6,95l60.6-10L492.08,148.781z"/>
		<path id="path3988_1_" inkscape:connector-curvature="0" opacity="0.9" fill="#C03A2B" enable-background="new    " d="
			M407.142,219.304l24.938,4.477l-19.057,45.523L407.142,219.304z"/>
		<path id="path3990_1_" inkscape:connector-curvature="0" fill="#C03A2B" d="M412.962,268.781l4.117,35l15-30L412.962,268.781z"/>
		<path id="path3992_1_" inkscape:connector-curvature="0" fill="#C03A2B" d="M432.08,223.781l-19.117,45l19.117,5V223.781z"/>
		<path id="path3994_1_" inkscape:connector-curvature="0" opacity="0.85" fill="#C03A2B" enable-background="new    " d="
			M407.142,219.304l-25.063,39.477l35.063,45.523L407.142,219.304z"/>
		<path id="path3864_3_" inkscape:connector-curvature="0" fill="#C03A2B" d="M382.08,363.099l-65,20.682l70,45"/>
	</g>
</g>
</svg>
