<?xml version="1.0" encoding="utf-8"?>
<!-- Generator: Adobe Illustrator 16.0.0, SVG Export Plug-In . SVG Version: 6.00 Build 0)  -->
<!DOCTYPE svg PUBLIC "-//W3C//DTD SVG 1.1//EN" "http://www.w3.org/Graphics/SVG/1.1/DTD/svg11.dtd">
<svg version="1.1"
	 id="svg2" xmlns:rdf="http://www.w3.org/1999/02/22-rdf-syntax-ns#" xmlns:svg="http://www.w3.org/2000/svg" xmlns:dc="http://purl.org/dc/elements/1.1/" xmlns:cc="http://creativecommons.org/ns#" xmlns:sodipodi="http://sodipodi.sourceforge.net/DTD/sodipodi-0.dtd" xmlns:inkscape="http://www.inkscape.org/namespaces/inkscape" sodipodi:docname="logoHeart.svg" inkscape:version="0.48.2 r9819"
	 xmlns="http://www.w3.org/2000/svg" xmlns:xlink="http://www.w3.org/1999/xlink" x="0px" y="0px" width="733.719px"
	 height="749.979px" viewBox="134.818 65.29 733.719 749.979" enable-background="new 134.818 65.29 733.719 749.979"
	 xml:space="preserve">
<sodipodi:namedview  guidetolerance="10" gridtolerance="10" showguides="false" showgrid="false" inkscape:cy="404.42968" inkscape:cx="377.60054" inkscape:zoom="0.70157371" borderopacity="1" bordercolor="#666666" objecttolerance="10" pagecolor="#ffffff" id="namedview197" inkscape:window-maximized="0" inkscape:window-y="28" inkscape:window-x="1289" inkscape:window-height="1140" inkscape:current-layer="svg2" inkscape:pageopacity="0" inkscape:window-width="1908" inkscape:guide-bbox="true" inkscape:pageshadow="2">
	<sodipodi:guide  position="522.08529,844.60902" orientation="1,0" id="guide7802"></sodipodi:guide>
</sodipodi:namedview>
<g id="Ebene_3">
</g>
<g id="Netz" display="none">
	
		<line id="line6" display="inline" fill="none" stroke="#000000" stroke-width="10" stroke-miterlimit="10" x1="248.138" y1="344.445" x2="326.138" y2="255.445"/>
	
		<line id="line8" display="inline" fill="none" stroke="#000000" stroke-width="10" stroke-miterlimit="10" x1="326.138" y1="255.445" x2="397.138" y2="250.445"/>
	
		<line id="line10" display="inline" fill="none" stroke="#000000" stroke-width="10" stroke-miterlimit="10" x1="397.138" y1="250.445" x2="455.138" y2="200.445"/>
	
		<line id="line12" display="inline" fill="none" stroke="#000000" stroke-width="10" stroke-miterlimit="10" x1="248.138" y1="344.445" x2="111.138" y2="252.945"/>
	
		<line id="line14" display="inline" fill="none" stroke="#000000" stroke-width="10" stroke-miterlimit="10" x1="111.138" y1="252.945" x2="86.138" y2="152.445"/>
	
		<line id="line16" display="inline" fill="none" stroke="#000000" stroke-width="10" stroke-miterlimit="10" x1="111.138" y1="252.945" x2="-55.862" y2="290.445"/>
	
		<line id="line18" display="inline" fill="none" stroke="#000000" stroke-width="10" stroke-miterlimit="10" x1="248.138" y1="350.445" x2="140.138" y2="437.445"/>
	
		<line id="line20" display="inline" fill="none" stroke="#000000" stroke-width="10" stroke-miterlimit="10" x1="140.138" y1="437.445" x2="-18.862" y2="420.445"/>
	
		<line id="line22" display="inline" fill="none" stroke="#000000" stroke-width="10" stroke-miterlimit="10" x1="-18.862" y1="420.445" x2="-18.862" y2="372.445"/>
	
		<line id="line24" display="inline" fill="none" stroke="#000000" stroke-width="10" stroke-miterlimit="10" x1="-18.862" y1="420.445" x2="-74.862" y2="460.445"/>
	
		<line id="line26" display="inline" fill="none" stroke="#000000" stroke-width="10" stroke-miterlimit="10" x1="140.138" y1="437.445" x2="127.138" y2="578.445"/>
	
		<line id="line28" display="inline" fill="none" stroke="#000000" stroke-width="10" stroke-miterlimit="10" x1="127.138" y1="578.445" x2="94.138" y2="596.445"/>
	
		<line id="line30" display="inline" fill="none" stroke="#000000" stroke-width="10" stroke-miterlimit="10" x1="248.138" y1="350.445" x2="355.138" y2="587.445"/>
	
		<line id="line32" display="inline" fill="none" stroke="#000000" stroke-width="10" stroke-miterlimit="10" x1="355.138" y1="587.445" x2="492.138" y2="578.445"/>
	
		<line id="line34" display="inline" fill="none" stroke="#000000" stroke-width="10" stroke-miterlimit="10" x1="492.138" y1="582.945" x2="529.138" y2="678.445"/>
	
		<line id="line36" display="inline" fill="none" stroke="#000000" stroke-width="10" stroke-miterlimit="10" x1="492.138" y1="582.945" x2="598.138" y2="544.445"/>
	
		<line id="line38" display="inline" fill="none" stroke="#000000" stroke-width="10" stroke-miterlimit="10" x1="355.138" y1="596.445" x2="339.138" y2="678.445"/>
	
		<line id="line40" display="inline" fill="none" stroke="#000000" stroke-width="10" stroke-miterlimit="10" x1="339.138" y1="678.445" x2="361.638" y2="702.445"/>
	
		<line id="line42" display="inline" fill="none" stroke="#000000" stroke-width="10" stroke-miterlimit="10" x1="248.138" y1="350.445" x2="487.138" y2="350.445"/>
	
		<line id="line44" display="inline" fill="none" stroke="#000000" stroke-width="10" stroke-miterlimit="10" x1="487.138" y1="350.445" x2="567.138" y2="277.445"/>
	
		<line id="line46" display="inline" fill="none" stroke="#000000" stroke-width="10" stroke-miterlimit="10" x1="567.138" y1="277.445" x2="614.138" y2="350.445"/>
	
		<line id="line48" display="inline" fill="none" stroke="#000000" stroke-width="10" stroke-miterlimit="10" x1="567.138" y1="277.445" x2="614.138" y2="185.445"/>
	
		<line id="line50" display="inline" fill="none" stroke="#000000" stroke-width="10" stroke-miterlimit="10" x1="614.138" y1="185.445" x2="646.138" y2="208.445"/>
	
		<line id="line52" display="inline" fill="none" stroke="#000000" stroke-width="10" stroke-miterlimit="10" x1="614.138" y1="344.445" x2="646.138" y2="318.445"/>
	
		<line id="line54" display="inline" fill="none" stroke="#000000" stroke-width="10" stroke-miterlimit="10" x1="614.138" y1="350.445" x2="630.138" y2="385.445"/>
	
		<line id="line56" display="inline" fill="none" stroke="#000000" stroke-width="10" stroke-miterlimit="10" x1="612.138" y1="185.445" x2="584.138" y2="131.445"/>
	
		<line id="line58" display="inline" fill="none" stroke="#000000" stroke-width="10" stroke-miterlimit="10" x1="86.138" y1="152.445" x2="127.138" y2="74.445"/>
	
		<line id="line60" display="inline" fill="none" stroke="#000000" stroke-width="10" stroke-miterlimit="10" x1="86.138" y1="152.445" x2="55" y2="113.445"/>
	
		<line id="line62" display="inline" fill="none" stroke="#000000" stroke-width="10" stroke-miterlimit="10" x1="-55.862" y1="290.445" x2="-80.862" y2="247.362"/>
	
		<line id="line64" display="inline" fill="none" stroke="#000000" stroke-width="10" stroke-miterlimit="10" x1="-80.862" y1="247.362" x2="-123.862" y2="257.362"/>
	
		<line id="line66" display="inline" fill="none" stroke="#000000" stroke-width="10" stroke-miterlimit="10" x1="-80.862" y1="247.362" x2="-68.362" y2="209.862"/>
	
		<line id="line68" display="inline" fill="none" stroke="#000000" stroke-width="10" stroke-miterlimit="10" x1="94.138" y1="596.445" x2="-2.862" y2="652.362"/>
	
		<line id="line70" display="inline" fill="none" stroke="#000000" stroke-width="10" stroke-miterlimit="10" x1="-2.862" y1="652.362" x2="-46.862" y2="652.362"/>
	
		<line id="line72" display="inline" fill="none" stroke="#000000" stroke-width="10" stroke-miterlimit="10" x1="-2.862" y1="652.362" x2="-2.862" y2="726.445"/>
	
		<line id="line74" display="inline" fill="none" stroke="#000000" stroke-width="10" stroke-miterlimit="10" x1="355.138" y1="707.171" x2="355.138" y2="778.445"/>
	
		<line id="line76" display="inline" fill="none" stroke="#000000" stroke-width="10" stroke-miterlimit="10" x1="355.138" y1="707.171" x2="432.499" y2="707.171"/>
	
		<line id="line78" display="inline" fill="none" stroke="#000000" stroke-width="10" stroke-miterlimit="10" x1="584.138" y1="131.445" x2="604.138" y2="55.445"/>
	
		<line id="line80" display="inline" fill="none" stroke="#000000" stroke-width="10" stroke-miterlimit="10" x1="584.138" y1="131.445" x2="494.999" y2="93.445"/>
	
		<line id="line82" display="inline" fill="none" stroke="#000000" stroke-width="10" stroke-miterlimit="10" x1="494.999" y1="93.445" x2="494.999" y2="55.445"/>
	
		<line id="line84" display="inline" fill="none" stroke="#000000" stroke-width="10" stroke-miterlimit="10" x1="492.138" y1="87.445" x2="447.499" y2="80.445"/>
</g>
<g id="Herz" transform="translate(34.268146,-99.780779)" sodipodi:docname="logoHeart.svg" inkscape:version="0.48.2 r9819">
	<path id="path87" inkscape:connector-curvature="0" fill="#FFFFFF" d="M751.898,310.071l-25-75 M726.898,235.071l-25-30l-60-35
		l-50-5l-50,15l-45,30l-30,45l-30-45l-64.999-40l-85,5l-65,45l-30,45l-10,65l10,75l30,55l65,80.001l30,30l90,85l63.909,44.809
		l66.09-54.809l36.889-31.166l53.111-53.833l70-75.001l25-40l25-55l5-80L726.898,235.071"/>
	<g id="layer2_1_" inkscape:label="Herz" inkscape:groupmode="layer">
		<path id="path3758_1_" inkscape:connector-curvature="0" fill="#C0392B" d="M466.897,255.071l90-40v65L466.897,255.071z"/>
		<path id="path3760_1_" inkscape:connector-curvature="0" opacity="0.95" fill="#C0392B" enable-background="new    " d="
			M556.898,215.071l-15-35l-45,30L556.898,215.071z"/>
		<path id="path3762_1_" inkscape:connector-curvature="0" opacity="0.85" fill="#C0392B" enable-background="new    " d="
			M496.898,210.071l-30,45l90-40L496.898,210.071z"/>
		<path id="path3764_1_" inkscape:connector-curvature="0" opacity="0.95" fill="#C0392B" enable-background="new    " d="
			M541.898,180.071l50-15l-5,35.25L541.898,180.071z"/>
		
			<path id="path3766_1_" sodipodi:nodetypes="cccc" inkscape:connector-curvature="0" opacity="0.9" fill="#C0392B" enable-background="new    " d="
			M556.898,215.071l85,10l-100-45L556.898,215.071z"/>
		<path id="path3768_1_" inkscape:connector-curvature="0" fill="#C0392B" d="M591.898,165.071l50,5l-55,30.25L591.898,165.071z"/>
		
			<path id="path3770_1_" sodipodi:nodetypes="cccc" inkscape:connector-curvature="0" opacity="0.85" fill="#C0392B" enable-background="new    " d="
			M641.898,170.071l60,35l-60,60V170.071L641.898,170.071z"/>
		<path id="path3772_1_" inkscape:connector-curvature="0" opacity="0.95" fill="#C0392B" enable-background="new    " d="
			M641.898,170.071l-55,30.25l55,24.75V170.071z"/>
		<path id="path3774_1_" inkscape:connector-curvature="0" fill="#C0392B" d="M701.898,205.071l25,30l-10,55L701.898,205.071z"/>
		<path id="path3776_1_" inkscape:connector-curvature="0" opacity="0.9" fill="#C0392B" enable-background="new    " d="
			M556.898,265.071l85-40l-85-10V265.071z"/>
		
			<path id="path3778_1_" sodipodi:nodetypes="cccc" inkscape:connector-curvature="0" opacity="0.95" fill="#C0392B" enable-background="new    " d="
			M556.898,265.071l60.063,10.523l-25.063,39.477L556.898,265.071z"/>
		
			<path id="path3780_1_" sodipodi:nodetypes="ccccc" inkscape:connector-curvature="0" opacity="0.85" fill="#C0392B" enable-background="new    " d="
			M556.898,280.071v50l35-15l-35-50V280.071z"/>
		
			<path id="path3782_1_" sodipodi:nodetypes="cccc" inkscape:connector-curvature="0" opacity="0.7673" fill="#C0392B" enable-background="new    " d="
			M556.898,265.071l85,15v-55L556.898,265.071z"/>
		<path id="path3784_1_" inkscape:connector-curvature="0" opacity="0.95" fill="#C0392B" enable-background="new    " d="
			M641.898,265.071v65l60-125L641.898,265.071L641.898,265.071z"/>
		
			<path id="path3790_1_" sodipodi:nodetypes="cccc" inkscape:connector-curvature="0" opacity="0.95" fill="#C0392B" enable-background="new    " d="
			M726.898,235.071l25,75l-40,5.545L726.898,235.071z"/>
		<path id="path3800_1_" inkscape:connector-curvature="0" fill="#C0392B" d="M716.614,290.287l-4.717,25.33l-35,4.852
			L716.614,290.287L716.614,290.287z"/>
		<path id="path3802_1_" inkscape:connector-curvature="0" opacity="0.8648" fill="#C0392B" enable-background="new    " d="
			M716.898,290.071l-60.6,10l20.6,20.396L716.898,290.071z"/>
		
			<path id="path3804_1_" sodipodi:nodetypes="cccc" inkscape:connector-curvature="0" opacity="0.85" fill="#C0392B" enable-background="new    " d="
			M656.298,300.071l-29.4,60h90L656.298,300.071z"/>
		<path id="path3806_1_" sodipodi:nodetypes="cccc" inkscape:connector-curvature="0" fill="#C0392B" d="M751.898,310.071l-5,80
			l-70-69.604L751.898,310.071z"/>
		<path id="path3820_1_" sodipodi:nodetypes="cccc" inkscape:connector-curvature="0" fill="#C0392B" d="M591.898,315.071l-30,50
			l65-5L591.898,315.071z"/>
		<path id="path3822_1_" inkscape:connector-curvature="0" opacity="0.8" fill="#C0392B" enable-background="new    " d="
			M591.898,315.071l-35,15l5,35L591.898,315.071z"/>
		<path id="path3824_1_" inkscape:connector-curvature="0" opacity="0.95" fill="#C0392B" enable-background="new    " d="
			M466.897,255.071l20,75l70-50L466.897,255.071z"/>
		<path id="path3826_1_" inkscape:connector-curvature="0" opacity="0.8" fill="#C0392B" enable-background="new    " d="
			M556.898,280.071v50h-70L556.898,280.071z"/>
		<path id="path3828_1_" inkscape:connector-curvature="0" opacity="0.95" fill="#C0392B" enable-background="new    " d="
			M556.898,330.071h-70l75,35L556.898,330.071z"/>
		<path id="path3830_1_" inkscape:connector-curvature="0" opacity="0.95" fill="#C0392B" enable-background="new    " d="
			M746.898,390.071l-25,55l-5-85L746.898,390.071z"/>
		<path id="path3832_1_" inkscape:connector-curvature="0" opacity="0.9" fill="#C0392B" enable-background="new    " d="
			M716.898,360.071h-55l60,85L716.898,360.071z"/>
		<path id="path3834_1_" inkscape:connector-curvature="0" opacity="0.85" fill="#C0392B" enable-background="new    " d="
			M661.898,360.071h-35l10,45L661.898,360.071z"/>
		<path id="path3836_1_" inkscape:connector-curvature="0" opacity="0.9" fill="#C0392B" enable-background="new    " d="
			M626.898,360.071l-65,5l75,40L626.898,360.071z"/>
		<path id="path3838_1_" inkscape:connector-curvature="0" opacity="0.9" fill="#C0392B" enable-background="new    " d="
			M661.898,360.071l5,35l-30,10L661.898,360.071z"/>
		<path id="path3840_1_" inkscape:connector-curvature="0" opacity="0.95" fill="#C0392B" enable-background="new    " d="
			M661.898,360.071l35.23,49.91l-30.23-14.91L661.898,360.071z"/>
		<path id="path3842_1_" inkscape:connector-curvature="0" opacity="0.95" fill="#C0392B" enable-background="new    " d="
			M721.898,445.071l-25,40l0.23-75.09L721.898,445.071z"/>
		<path id="path3844_1_" inkscape:connector-curvature="0" opacity="0.95" fill="#C0392B" enable-background="new    " d="
			M666.898,395.071l-20,55l50.23-40.09L666.898,395.071z"/>
		<path id="path3846_1_" inkscape:connector-curvature="0" opacity="0.9" fill="#C0392B" enable-background="new    " d="
			M697.128,409.981l-0.123,50.204l-50.107-10.114L697.128,409.981z"/>
		<path id="path3848_1_" inkscape:connector-curvature="0" opacity="0.8" fill="#C0392B" enable-background="new    " d="
			M696.898,485.071l-50-35l50.076,10.067L696.898,485.071z"/>
		<path id="path3850_1_" sodipodi:nodetypes="cccc" inkscape:connector-curvature="0" fill="#C0392B" d="M666.898,395.071
			l-75,24.318l55,30.682L666.898,395.071z"/>
		<path id="path3852_1_" inkscape:connector-curvature="0" opacity="0.8" fill="#C0392B" enable-background="new    " d="
			M696.898,485.071h-100l50-35L696.898,485.071z"/>
		<path id="path3854_1_" inkscape:connector-curvature="0" opacity="0.95" fill="#C0392B" enable-background="new    " d="
			M646.898,450.071l-55-30.682l5,65.682L646.898,450.071z"/>
		
			<path id="path3856_1_" sodipodi:nodetypes="cccc" inkscape:connector-curvature="0" opacity="0.95" fill="#C0392B" enable-background="new    " d="
			M636.898,405.071l-75-40l-35,75L636.898,405.071z"/>
		<path id="path3858_1_" inkscape:connector-curvature="0" opacity="0.9" fill="#C0392B" enable-background="new    " d="
			M696.898,485.071l-70,75.001l-30-75.001H696.898z"/>
		<path id="path3860_1_" inkscape:connector-curvature="0" fill="#C0392B" d="M626.898,560.072l-53.111,53.833l-41.889-83.833
			L626.898,560.072z"/>
		<path id="path3862_1_" inkscape:connector-curvature="0" opacity="0.85" fill="#C0392B" enable-background="new    " d="
			M596.898,485.071l-65,45.001l95,30L596.898,485.071z"/>
		<path id="path3864_4_" inkscape:connector-curvature="0" opacity="0.95" fill="#C0392B" enable-background="new    " d="
			M526.898,440.071l5,90.001l65-45.001"/>
		<path id="path3866_1_" sodipodi:nodetypes="cccc" inkscape:connector-curvature="0" fill="#C0392B" d="M573.786,613.906
			l-36.889,31.166h-60L573.786,613.906z"/>
		<path id="path3868_1_" inkscape:connector-curvature="0" opacity="0.9" fill="#C0392B" enable-background="new    " d="
			M531.898,530.072l-55,115l96.889-31.166L531.898,530.072z"/>
		<path id="path3870_1_" inkscape:connector-curvature="0" opacity="0.9" fill="#C0392B" enable-background="new    " d="
			M526.898,440.071l-75,10l80,80.001L526.898,440.071z"/>
		<path id="path3872_1_" inkscape:connector-curvature="0" opacity="0.95" fill="#C0392B" enable-background="new    " d="
			M451.897,450.071l55.583,131.057l24.418-51.056L451.897,450.071L451.897,450.071z"/>
		<path id="path3874_1_" inkscape:connector-curvature="0" opacity="0.95" fill="#C0392B" enable-background="new    " d="
			M507.48,581.128l-30.583,63.943l-59.999-55L507.48,581.128L507.48,581.128z"/>
		<path id="path3876_1_" inkscape:connector-curvature="0" fill="#C0392B" d="M451.897,450.071l-34.999,140l90.582-8.943
			L451.897,450.071L451.897,450.071z"/>
		<path id="path3878_1_" inkscape:connector-curvature="0" opacity="0.95" fill="#C0392B" enable-background="new    " d="
			M476.897,645.072l-6.09,54.809l66.09-54.809H476.897z"/>
		<path id="path3880_1_" inkscape:connector-curvature="0" opacity="0.95" fill="#C0392B" enable-background="new    " d="
			M476.897,645.072l-69.999,10l64.999,35L476.897,645.072z"/>
		<path id="path3882_1_" inkscape:connector-curvature="0" fill="#C0392B" d="M406.898,655.072l63.909,44.809l1.09-9.809
			L406.898,655.072z"/>
		<path id="path3884_1_" inkscape:connector-curvature="0" fill="#C0392B" d="M416.898,590.072l-10,65l69.999-10L416.898,590.072z"
			/>
		<path id="path3886_1_" inkscape:connector-curvature="0" opacity="0.95" fill="#C0392B" enable-background="new    " d="
			M416.898,590.072l-100-20l90,85L416.898,590.072z"/>
		<path id="path3888_1_" inkscape:connector-curvature="0" fill="#C0392B" d="M316.898,570.072l45-65.001l30,80L316.898,570.072z"/>
		<path id="path3890_1_" inkscape:connector-curvature="0" opacity="0.9" fill="#C0392B" enable-background="new    " d="
			M416.898,590.072l-25-5l44.999-75L416.898,590.072z"/>
		<path id="path3892_1_" inkscape:connector-curvature="0" opacity="0.9" fill="#C0392B" enable-background="new    " d="
			M391.898,585.072l-30-80l45-20L391.898,585.072z"/>
		<path id="path3894_1_" inkscape:connector-curvature="0" opacity="0.8" fill="#C0392B" enable-background="new    " d="
			M451.897,450.071l-44.999,35l29.999,25L451.897,450.071z"/>
		<path id="path3896_1_" inkscape:connector-curvature="0" opacity="0.85" fill="#C0392B" enable-background="new    " d="
			M406.898,485.071l-15,100l44.999-75L406.898,485.071z"/>
		<path id="path3898_1_" inkscape:connector-curvature="0" opacity="0.9" fill="#C0392B" enable-background="new    " d="
			M496.898,334.738l-20,50.333l64.528-29.583L496.898,334.738z"/>
		<path id="path3900_1_" inkscape:connector-curvature="0" opacity="0.9" fill="#C0392B" enable-background="new    " d="
			M561.898,365.015l-20.473-9.528l-44.527,44.528L561.898,365.015L561.898,365.015z"/>
		<path id="path3902_1_" inkscape:connector-curvature="0" opacity="0.8" fill="#C0392B" enable-background="new    " d="
			M561.898,365.071l-35,75l-30-40L561.898,365.071z"/>
		<path id="path3904_1_" inkscape:connector-curvature="0" opacity="0.85" fill="#C0392B" enable-background="new    " d="
			M541.425,355.488l-45.076,45l-19.451-15.417L541.425,355.488z"/>
		<path id="path3906_1_" inkscape:connector-curvature="0" fill="#C0392B" d="M526.898,440.071l-30-40l-60,10L526.898,440.071z"/>
		<path id="path3908_1_" inkscape:connector-curvature="0" opacity="0.9" fill="#C0392B" enable-background="new    " d="
			M436.897,410.071l15,40l75-10L436.897,410.071z"/>
		<path id="path3910_1_" inkscape:connector-curvature="0" opacity="0.85" fill="#C0392B" enable-background="new    " d="
			M406.898,485.071l44.999-35l-44.999-120V485.071z"/>
		<path id="path3912_1_" inkscape:connector-curvature="0" opacity="0.95" fill="#C0392B" enable-background="new    " d="
			M476.897,385.071l-40,25l60-10L476.897,385.071z"/>
		<path id="path3914_1_" inkscape:connector-curvature="0" opacity="0.95" fill="#C0392B" enable-background="new    " d="
			M486.897,330.071l-50-20l40,75l20-50.333L486.897,330.071z"/>
		<path id="path3916_1_" inkscape:connector-curvature="0" opacity="0.95" fill="#C0392B" enable-background="new    " d="
			M436.897,310.071l40,75l-40,25V310.071z"/>
		<path id="path3918_1_" inkscape:connector-curvature="0" fill="#C0392B" d="M436.897,310.071l-29.999,20l29.999,80V310.071z"/>
		<path id="path3920_1_" inkscape:connector-curvature="0" fill="#C0392B" d="M466.897,255.071l-30,55l50,20L466.897,255.071z"/>
		<path id="path3922_1_" inkscape:connector-curvature="0" opacity="0.9" fill="#C0392B" enable-background="new    " d="
			M361.898,505.071l-55-40l100,20L361.898,505.071z"/>
		<path id="path3924_1_" inkscape:connector-curvature="0" opacity="0.8" fill="#C0392B" enable-background="new    " d="
			M306.898,465.071l-20,75.001l75-35.001L306.898,465.071z"/>
		<path id="path3926_1_" inkscape:connector-curvature="0" opacity="0.9" fill="#C0392B" enable-background="new    " d="
			M361.898,505.071l-45,65.001l-30-30L361.898,505.071z"/>
		<path id="path3928_1_" inkscape:connector-curvature="0" opacity="0.85" fill="#C0392B" enable-background="new    " d="
			M286.898,540.072l-65-80.001l85,5L286.898,540.072z"/>
		<path id="path3930_1_" inkscape:connector-curvature="0" opacity="0.9" fill="#C0392B" enable-background="new    " d="
			M221.898,460.071l10-85l75,90L221.898,460.071z"/>
		<path id="path3932_1_" inkscape:connector-curvature="0" opacity="0.95" fill="#C0392B" enable-background="new    " d="
			M406.898,485.071v-105l-100,85L406.898,485.071z"/>
		<path id="path3934_1_" inkscape:connector-curvature="0" opacity="0.95" fill="#C0392B" enable-background="new    " d="
			M406.898,330.071l-90,10l90,40V330.071z"/>
		<path id="path3936_1_" inkscape:connector-curvature="0" fill="#C0392B" d="M316.898,340.071l-10,125l100-85L316.898,340.071z"/>
		<path id="path3938_1_" inkscape:connector-curvature="0" opacity="0.95" fill="#C0392B" enable-background="new    " d="
			M316.898,340.071l-85,35l75,90L316.898,340.071z"/>
		
			<path id="path3940_1_" sodipodi:nodetypes="cccc" inkscape:connector-curvature="0" opacity="0.95" fill="#C0392B" enable-background="new    " d="
			M231.898,375.071l-40,30l30,55L231.898,375.071z"/>
		<path id="path3942_1_" inkscape:connector-curvature="0" fill="#C0392B" d="M191.898,405.071l-10-75l50,45L191.898,405.071z"/>
		
			<path id="path3944_1_" sodipodi:nodetypes="cccc" inkscape:connector-curvature="0" opacity="0.9" fill="#C0392B" enable-background="new    " d="
			M181.898,330.071l90-30l-40,75L181.898,330.071z"/>
		<path id="path3946_1_" inkscape:connector-curvature="0" opacity="0.85" fill="#C0392B" enable-background="new    " d="
			M291.898,350.366l-20-50.295l-40,75L291.898,350.366z"/>
		<path id="path3948_1_" inkscape:connector-curvature="0" opacity="0.95" fill="#C0392B" enable-background="new    " d="
			M271.898,300.071l45,40l-25,10.295L271.898,300.071z"/>
		<path id="path3950_1_" inkscape:connector-curvature="0" fill="#C0392B" d="M271.898,300.071l80-30l-35,70L271.898,300.071z"/>
		<path id="path3952_1_" inkscape:connector-curvature="0" fill="#C0392B" d="M351.898,270.071l55,60l-90,10L351.898,270.071z"/>
		<path id="path3954_1_" inkscape:connector-curvature="0" opacity="0.85" fill="#C0392B" enable-background="new    " d="
			M436.897,310.071l-19.999-60l-10,80L436.897,310.071z"/>
		<path id="path3956_1_" inkscape:connector-curvature="0" opacity="0.9" fill="#C0392B" enable-background="new    " d="
			M351.898,270.071l65-20l-10,80L351.898,270.071z"/>
		<path id="path3958_1_" inkscape:connector-curvature="0" opacity="0.9" fill="#C0392B" enable-background="new    " d="
			M416.898,250.071l19.999-40v100L416.898,250.071z"/>
		<path id="path3960_1_" inkscape:connector-curvature="0" opacity="0.95" fill="#C0392B" enable-background="new    " d="
			M436.897,210.071l30,45l-30,55V210.071z"/>
		<path id="path3962_1_" inkscape:connector-curvature="0" opacity="0.85" fill="#C0392B" enable-background="new    " d="
			M436.897,210.071l-64.999-40l-39.8,59.729L436.897,210.071z"/>
		<path id="path3964_1_" inkscape:connector-curvature="0" opacity="0.95" fill="#C0392B" enable-background="new    " d="
			M436.897,210.071l-50.182,9.447l30.183,30.553L436.897,210.071z"/>
		<path id="path3968_1_" inkscape:connector-curvature="0" fill="#C0392B" d="M386.715,219.518l-34.817,50.553l65-20
			L386.715,219.518z"/>
		<path id="path3970_1_" inkscape:connector-curvature="0" opacity="0.9" fill="#C0392B" enable-background="new    " d="
			M386.715,219.518l-109.817,20.553l75,30L386.715,219.518L386.715,219.518z"/>
		<path id="path3972_1_" inkscape:connector-curvature="0" opacity="0.8" fill="#C0392B" enable-background="new    " d="
			M276.898,240.071l-95,90l90-30L276.898,240.071z"/>
		<path id="path3974_1_" inkscape:connector-curvature="0" opacity="0.95" fill="#C0392B" enable-background="new    " d="
			M276.898,240.071l75,30l-80,30L276.898,240.071z"/>
		<path id="path3976_1_" inkscape:connector-curvature="0" opacity="0.95" fill="#C0392B" enable-background="new    " d="
			M371.898,170.071l-85,5l45.2,54.729L371.898,170.071z"/>
		<path id="path3978_1_" inkscape:connector-curvature="0" opacity="0.9" fill="#C0392B" enable-background="new    " d="
			M286.898,175.071l-65,45l110.2,9.729L286.898,175.071z"/>
		<path id="path3980_1_" inkscape:connector-curvature="0" fill="#C0392B" d="M332.098,229.801l-110.2-9.729l55,20L332.098,229.801z
			"/>
		<path id="path3982_1_" inkscape:connector-curvature="0" opacity="0.85" fill="#C0392B" enable-background="new    " d="
			M221.898,220.071l-30,45l85-25L221.898,220.071z"/>
		<path id="path3984_1_" inkscape:connector-curvature="0" opacity="0.9" fill="#C0392B" enable-background="new    " d="
			M191.898,265.071l-10,65l95-90L191.898,265.071z"/>
		<path id="path3986_1_" inkscape:connector-curvature="0" opacity="0.75" fill="#C0392B" enable-background="new    " d="
			M701.898,205.071l-45.6,95l60.6-10L701.898,205.071z"/>
		<path id="path3988_1_" inkscape:connector-curvature="0" opacity="0.9" fill="#C0392B" enable-background="new    " d="
			M616.96,275.594l24.938,4.477l-19.057,45.523L616.96,275.594z"/>
		<path id="path3990_1_" inkscape:connector-curvature="0" fill="#C0392B" d="M622.78,325.071l4.117,35l15-30L622.78,325.071z"/>
		<path id="path3992_1_" inkscape:connector-curvature="0" fill="#C0392B" d="M641.898,280.071l-19.117,45l19.117,5V280.071z"/>
		<path id="path3994_1_" inkscape:connector-curvature="0" opacity="0.85" fill="#C0392B" enable-background="new    " d="
			M616.96,275.594l-25.063,39.477l35.063,45.523L616.96,275.594z"/>
		<path id="path3864_3_" inkscape:connector-curvature="0" fill="#C0392B" d="M591.898,419.389l-65,20.682l70,45"/>
	</g>
</g>
<g id="text7798">
	<path id="path7830" d="M155.937,775.525c-2.495-2.111-5.231-3.504-9.743-3.504c-5.856,0-9.937,3.168-9.937,7.92
		c0,4.801,2.977,7.008,9.6,9.072c5.761,1.775,8.208,3.313,8.208,7.439c0,4.512-3.359,7.057-8.352,7.057
		c-3.84,0-6.816-1.344-9.216-3.504l-1.68,1.967c2.688,2.545,6.336,3.984,10.896,3.984c7.056,0,11.328-3.887,11.328-9.6
		c0-5.855-4.176-8.016-9.984-9.791c-5.903-1.824-7.872-3.266-7.872-6.721c0-3.504,3.024-5.377,7.104-5.377
		c3.312,0,5.616,0.912,7.92,2.93L155.937,775.525"/>
	<path id="path7832" d="M167.217,787.574c1.68-2.785,4.271-5.473,7.439-5.473c3.36,0,4.656,1.775,4.656,6.096v17.232h2.736v-18
		c0-4.896-1.872-7.633-6.673-7.633c-3.456,0-6.191,1.633-8.159,4.512v-14.543l-2.736,0.336v35.328h2.736V787.574"/>
	<path id="path7834" d="M204.852,801.734c0.479,2.832,1.92,3.84,4.176,4.223l0.624-1.92c-1.584-0.48-2.4-1.344-2.4-4.08v-12.143
		c0-5.041-2.448-8.018-8.352-8.018c-2.353,0-4.849,0.385-7.92,1.584l0.768,2.16c2.736-1.055,4.896-1.391,6.769-1.391
		c4.271,0,6,1.871,6,5.807v2.496h-4.32c-6.769,0-10.992,2.736-10.992,7.969c0,4.512,2.88,7.535,7.729,7.535
		c3.216,0,6.144-1.295,7.92-4.271V801.734 M204.516,799.045c-1.393,2.736-3.792,4.561-6.912,4.561c-3.504,0-5.473-1.871-5.473-5.328
		c0-3.84,2.832-5.664,8.208-5.664h4.177V799.045"/>
	<path id="path7836" d="M219.707,780.326h-2.352v25.104h2.736v-15.553c1.344-4.416,3.456-7.344,6.72-7.344
		c0.864,0,1.536,0.096,2.208,0.289l0.528-2.736c-0.673-0.193-1.488-0.289-2.353-0.289c-3.456,0-5.712,1.777-7.2,6.049
		L219.707,780.326"/>
	<path id="path7838" d="M252.642,793.957c0.048-0.48,0.096-1.248,0.096-1.824c0-7.631-3.456-12.336-9.696-12.336
		s-10.128,5.281-10.128,13.201s3.888,12.959,10.752,12.959c3.216,0,6-1.055,8.16-3.023l-1.296-1.871
		c-2.112,1.822-4.128,2.543-6.769,2.543c-4.271,0-7.68-2.928-8.016-9.648H252.642 M243.042,782.15c4.512,0,6.864,3.504,6.96,9.646
		h-14.256C236.034,785.125,239.01,782.15,243.042,782.15"/>
	<path id="path7840" d="M269.701,780.326l8.929,25.104h0.96c-1.393,4.225-3.168,6.623-8.208,7.584l0.384,2.256
		c6.288-0.961,8.64-4.367,10.416-9.744l8.448-25.199h-2.929l-7.151,22.895h-0.096l-7.729-22.895H269.701"/>
	<path id="path7842" d="M294.508,792.902c0,8.063,3.937,13.055,10.561,13.055c6.623,0,10.655-5.135,10.655-13.152
		c0-8.063-3.936-13.008-10.512-13.008C298.588,779.797,294.508,784.838,294.508,792.902 M305.212,782.101
		c4.752,0,7.584,3.648,7.584,10.703c0,7.201-2.88,10.85-7.728,10.85c-4.801,0-7.633-3.697-7.633-10.752
		C297.435,785.701,300.364,782.101,305.212,782.101"/>
	<path id="path7844" d="M338.824,805.429h2.353v-25.104h-2.736v17.951c-1.68,2.688-4.271,5.377-7.392,5.377
		c-2.928,0-4.416-1.584-4.416-5.617v-17.711h-2.736v18.047c0,4.896,2.112,7.584,6.672,7.584c3.36,0,6.048-1.729,8.064-4.799
		L338.824,805.429"/>
	<path id="path7846" d="M354.051,780.326h-2.352v25.104h2.736v-15.553c1.344-4.416,3.456-7.344,6.72-7.344
		c0.864,0,1.536,0.096,2.208,0.289l0.528-2.736c-0.673-0.193-1.488-0.289-2.353-0.289c-3.456,0-5.712,1.777-7.2,6.049
		L354.051,780.326"/>
	<path id="path7848" d="M396.168,780.326l-10.32,11.375l11.473,13.729h3.408l-11.712-13.824l10.512-11.279H396.168 M382.824,770.101
		v35.328h2.736v-35.664L382.824,770.101"/>
	<path id="path7850" d="M408.332,780.326h-2.352v25.104h2.736v-17.953c1.68-2.688,4.271-5.375,7.439-5.375
		c3.264,0,4.656,1.729,4.656,5.809v17.52h2.736v-18c0-4.896-1.872-7.633-6.673-7.633c-3.504,0-6.336,1.729-8.352,4.801
		L408.332,780.326"/>
	<path id="path7852" d="M431.664,792.902c0,8.063,3.937,13.055,10.561,13.055c6.623,0,10.655-5.135,10.655-13.152
		c0-8.063-3.936-13.008-10.512-13.008C435.744,779.797,431.664,784.838,431.664,792.902 M442.368,782.101
		c4.752,0,7.584,3.648,7.584,10.703c0,7.201-2.88,10.85-7.728,10.85c-4.801,0-7.633-3.697-7.633-10.752
		C434.592,785.701,437.52,782.101,442.368,782.101"/>
	<path id="path7854" d="M485.208,780.326l-5.279,22.703h-0.097l-5.808-22.703h-3.12l-6,22.752h-0.096l-5.232-22.752h-2.832
		l6.24,25.104h3.696l5.664-22.225h0.096l5.568,22.225h3.792l6.144-25.104H485.208"/>
	<path id="path7856" d="M493.907,770.101v31.199c0,3.408,1.775,4.656,4.224,4.656c1.104,0,2.16-0.24,3.024-0.719l-0.769-1.969
		c-0.528,0.191-1.104,0.336-1.775,0.336c-1.297,0-1.969-0.768-1.969-2.4v-31.439L493.907,770.101"/>
	<path id="path7858" d="M524.986,793.957c0.048-0.48,0.096-1.248,0.096-1.824c0-7.631-3.456-12.336-9.696-12.336
		c-6.239,0-10.128,5.281-10.128,13.201s3.889,12.959,10.752,12.959c3.217,0,6-1.055,8.16-3.023l-1.296-1.871
		c-2.112,1.822-4.128,2.543-6.768,2.543c-4.272,0-7.681-2.928-8.017-9.648H524.986 M515.385,782.15c4.513,0,6.864,3.504,6.96,9.646
		H508.09C508.378,785.125,511.354,782.15,515.385,782.15"/>
	<path id="path7860" d="M547.887,783.349c-1.776-2.352-3.889-3.553-7.152-3.553c-5.904,0-9.696,5.281-9.696,13.201
		c0,7.967,3.12,12.959,9.265,12.959c3.023,0,5.424-1.152,7.584-4.32l0.336,3.793h2.399v-35.328l-2.735-0.336V783.349
		 M547.887,798.709c-1.681,2.881-3.937,4.848-7.104,4.848c-4.32,0-6.815-3.646-6.815-10.559c0-7.105,2.783-10.848,7.296-10.848
		c2.88,0,5.04,1.584,6.624,4.271V798.709"/>
	<path id="path7862" d="M557.631,808.406c0,5.52,4.464,6.863,10.224,6.863c6.576,0,10.752-2.4,10.752-7.297
		c0-3.359-2.592-6.432-7.92-6.432h-3.936c-3.265,0-4.128-1.152-4.128-2.688c0-0.912,0.815-2.16,1.775-2.832
		c1.057,0.385,2.256,0.625,3.504,0.625c5.473,0,9.072-3.313,9.072-8.4c0-3.361-1.632-5.617-3.984-6.77
		c2.832,0,4.801-0.143,6.624-0.768l-0.815-2.592c-2.305,1.008-4.992,1.68-10.992,1.68c-5.664,0-9.12,3.648-9.12,8.496
		c0,3.264,1.536,5.568,3.84,6.912c-1.632,1.057-2.544,2.545-2.544,3.984c0,2.641,2.064,4.848,6.624,4.848h3.84
		c3.36,0,5.28,1.537,5.28,4.129c0,3.264-2.736,4.895-7.872,4.895c-5.52,0-7.728-1.391-7.728-4.703L557.631,808.406 M574.19,788.293
		c0,3.984-2.352,6.193-6.336,6.193s-6.384-2.4-6.384-6.193c0-3.791,2.304-6.336,6.384-6.336
		C572.127,781.957,574.19,784.308,574.19,788.293"/>
	<path id="path7864" d="M603.174,793.957c0.048-0.48,0.096-1.248,0.096-1.824c0-7.631-3.456-12.336-9.696-12.336
		c-6.239,0-10.128,5.281-10.128,13.201s3.889,12.959,10.752,12.959c3.217,0,6-1.055,8.16-3.023l-1.296-1.871
		c-2.112,1.822-4.128,2.543-6.768,2.543c-4.272,0-7.681-2.928-8.017-9.648H603.174 M593.573,782.15c4.513,0,6.864,3.504,6.96,9.646
		h-14.256C586.565,785.125,589.542,782.15,593.573,782.15"/>
	<path id="path7866" d="M610.522,803.701c0,1.297,0.912,2.256,2.305,2.256c1.439,0,2.304-0.959,2.304-2.256
		c0-1.295-0.864-2.256-2.304-2.256C611.434,801.445,610.522,802.406,610.522,803.701"/>
	<path id="path7868" d="M653.559,772.549h-3.12l-7.296,29.809h-0.097l-6.096-29.809h-2.832l7.152,32.881h3.456l7.2-29.279h0.096
		l7.2,29.279h3.552l7.152-32.881h-2.688l-6.191,29.809h-0.097L653.559,772.549"/>
	<path id="path7870" d="M676.209,780.326v25.104h2.736v-25.104H676.209 M677.553,774.662c1.248,0,2.063-0.865,2.063-2.018
		c0-1.15-0.815-2.016-2.063-2.016s-2.064,0.865-2.064,2.016C675.489,773.797,676.305,774.662,677.553,774.662"/>
	<path id="path7872" d="M685.213,782.437h4.656v16.801c0,4.223,2.064,6.719,6.144,6.719c1.969,0,3.792-0.576,5.28-1.584l-1.104-1.92
		c-1.248,0.721-2.496,1.152-3.792,1.152c-2.641,0-3.792-1.439-3.792-4.561v-16.607h6.288l0.288-2.111h-6.576v-6.336l-2.736,0.336v6
		h-4.656V782.437"/>
	<path id="path7874" d="M709.748,787.574c1.68-2.785,4.271-5.473,7.439-5.473c3.36,0,4.656,1.775,4.656,6.096v17.232h2.736v-18
		c0-4.896-1.872-7.633-6.672-7.633c-3.456,0-6.192,1.633-8.16,4.512v-14.543l-2.736,0.336v35.328h2.736V787.574"/>
	<path id="path7876" d="M750.998,787.574c1.68-2.785,4.271-5.473,7.439-5.473c3.36,0,4.656,1.775,4.656,6.096v17.232h2.736v-18
		c0-4.896-1.872-7.633-6.672-7.633c-3.456,0-6.192,1.633-8.16,4.512v-14.543l-2.736,0.336v35.328h2.736V787.574"/>
	<path id="path7878" d="M793.674,793.957c0.048-0.48,0.096-1.248,0.096-1.824c0-7.631-3.456-12.336-9.696-12.336
		c-6.239,0-10.128,5.281-10.128,13.201s3.889,12.959,10.752,12.959c3.217,0,6-1.055,8.16-3.023l-1.296-1.871
		c-2.112,1.822-4.128,2.543-6.768,2.543c-4.272,0-7.681-2.928-8.017-9.648H793.674 M784.073,782.15c4.513,0,6.864,3.504,6.96,9.646
		h-14.256C777.065,785.125,780.042,782.15,784.073,782.15"/>
	<path id="path7880" d="M814.415,801.734c0.479,2.832,1.92,3.84,4.176,4.223l0.624-1.92c-1.584-0.48-2.4-1.344-2.4-4.08v-12.143
		c0-5.041-2.447-8.018-8.352-8.018c-2.352,0-4.848,0.385-7.92,1.584l0.768,2.16c2.736-1.055,4.896-1.391,6.769-1.391
		c4.271,0,6,1.871,6,5.807v2.496h-4.32c-6.768,0-10.992,2.736-10.992,7.969c0,4.512,2.88,7.535,7.729,7.535
		c3.216,0,6.144-1.295,7.92-4.271V801.734 M814.079,799.045c-1.393,2.736-3.792,4.561-6.912,4.561c-3.504,0-5.472-1.871-5.472-5.328
		c0-3.84,2.832-5.664,8.208-5.664h4.176V799.045"/>
	<path id="path7882" d="M829.27,780.326h-2.353v25.104h2.736v-15.553c1.344-4.416,3.456-7.344,6.72-7.344
		c0.864,0,1.536,0.096,2.208,0.289l0.528-2.736c-0.672-0.193-1.488-0.289-2.353-0.289c-3.456,0-5.712,1.777-7.199,6.049
		L829.27,780.326"/>
	<path id="path7884" d="M841.775,782.437h4.656v16.801c0,4.223,2.064,6.719,6.144,6.719c1.969,0,3.792-0.576,5.28-1.584l-1.104-1.92
		c-1.248,0.721-2.496,1.152-3.792,1.152c-2.641,0-3.792-1.439-3.792-4.561v-16.607h6.288l0.288-2.111h-6.576v-6.336l-2.736,0.336v6
		h-4.656V782.437"/>
	<path id="path7886" d="M863.928,803.701c0,1.297,0.912,2.256,2.305,2.256c1.439,0,2.304-0.959,2.304-2.256
		c0-1.295-0.864-2.256-2.304-2.256C864.841,801.445,863.928,802.406,863.928,803.701"/>
</g>
<g id="text7804">
	<path id="path7817" d="M334.046,702.478c0-18.287-10.8-26.064-29.664-32.256c-15.408-4.896-18.72-7.344-18.72-13.68
		c0-6.191,5.328-9.648,13.968-9.648c7.632,0,14.688,2.736,21.456,8.352l11.232-12.959c-8.784-8.352-19.729-12.961-34.704-12.961
		c-20.16,0-36.721,10.656-36.721,29.088c0,14.832,7.776,23.904,30.673,31.105c13.823,4.318,17.567,7.631,17.567,14.832
		c0,7.486-5.904,12.096-15.696,12.096s-18.432-3.6-25.632-10.08l-12.239,13.391c8.207,8.064,21.312,14.4,38.88,14.4
		C319.214,734.158,334.046,721.199,334.046,702.478"/>
	<path id="path7819" d="M369.227,678.863c4.177-5.76,8.353-9.217,12.96-9.217c4.752,0,7.057,2.449,7.057,9.504v52.561h23.04v-56.16
		c0-14.545-7.2-22.896-20.736-22.896c-8.64,0-15.984,3.744-22.32,10.369v-40.465l-23.04,2.305v106.848h23.04V678.863"/>
	<path id="path7821" d="M490.781,679.726c0-17.855-9.216-27.072-32.544-27.072c-8.064,0-18.864,2.016-28.656,5.76l5.184,15.266
		c7.776-2.594,15.265-4.033,19.872-4.033c10.368,0,13.969,2.736,13.969,11.664v2.736h-8.784c-23.616,0-36.576,9.504-36.576,26.064
		c0,14.111,9.647,24.047,25.488,24.047c9.216,0,18-3.168,23.472-10.223c3.6,6.336,9.648,9.07,18.72,9.936l4.752-15.121
		c-3.6-1.295-4.896-3.455-4.896-9.215V679.726 M456.365,717.742c-5.904,0-8.784-3.455-8.784-9.215
		c0-7.488,4.32-11.377,16.992-11.377h4.032v12.24C465.726,714.719,461.261,717.742,456.365,717.742"/>
	<path id="path7823" d="M542.028,669.502c4.752,0,8.207,2.305,11.375,6.193v32.832c-3.313,5.471-7.775,8.783-12.672,8.783
		c-7.775,0-12.672-4.896-12.672-23.904C528.059,676.271,533.675,669.502,542.028,669.502 M535.979,652.654
		c-19.872,0-31.824,16.992-31.824,40.609c0,24.768,9.216,40.895,29.087,40.895c10.08,0,17.424-4.895,21.744-10.799l1.152,8.352
		h20.305V624.863l-23.041-2.449v37.297C548.796,655.246,542.747,652.654,535.979,652.654"/>
	<path id="path7825" d="M641.475,693.263c0,16.99-4.465,24.047-13.68,24.047c-9.361,0-13.824-7.057-13.824-23.904
		c0-16.559,4.607-23.76,13.824-23.76C637.01,669.646,641.475,676.847,641.475,693.263 M590.067,693.406
		c0,25.777,14.111,40.752,37.729,40.752c23.471,0,37.584-15.264,37.584-40.895c0-24.48-14.113-40.609-37.584-40.609
		C604.323,652.654,590.067,669.07,590.067,693.406"/>
	<path id="path7827" d="M725.85,693.263c0,16.99-4.465,24.047-13.68,24.047c-9.361,0-13.824-7.057-13.824-23.904
		c0-16.559,4.607-23.76,13.824-23.76C721.385,669.646,725.85,676.847,725.85,693.263 M674.442,693.406
		c0,25.777,14.111,40.752,37.729,40.752c23.471,0,37.584-15.264,37.584-40.895c0-24.48-14.113-40.609-37.584-40.609
		C688.698,652.654,674.442,669.07,674.442,693.406"/>
</g>
</svg>
